<svg width="24" height="24" viewBox="0 0 24 24" fill="none" xmlns="http://www.w3.org/2000/svg">
  <path fill-rule="evenodd" clip-rule="evenodd" d="M17 8.50001C17.0002 5.48572 14.5741 3.03289 11.56 3.00001H11.51C10.0496 2.99735 8.64806 3.57564 7.61445 4.60738C6.58083 5.63912 6 7.03958 6 8.50001V8.81001C5.99476 8.87323 5.99476 8.93678 6 9.00001V9.11001C6.0427 9.36479 6.10625 9.61563 6.19 9.86001V9.91001C6.25554 10.1668 6.34252 10.4177 6.45 10.66C4.28107 12.26 3.00069 14.7948 3 17.49C3 22.17 20 22.17 20 17.49C20.0474 14.8173 18.8319 12.2788 16.72 10.64L16.78 10.49C16.7941 10.4533 16.8114 10.4158 16.829 10.3778C16.8736 10.281 16.92 10.1805 16.92 10.08C16.9243 10.0401 16.9243 9.99989 16.92 9.96001V9.84001V9.72001C17 9.58001 17 9.36001 17 9.30001V9.10001V9.00001C17.0037 8.94674 17.0037 8.89328 17 8.84001V8.50001ZM11.51 5.00001C10.58 4.99735 9.6872 5.36493 9.02866 6.02159C8.37012 6.67826 8 7.57002 8 8.50001V8.79001V8.93001C7.99661 8.97994 7.99564 9.03 7.99709 9.08001C7.99564 9.13001 7.99661 9.18007 8 9.23001V9.14001C8.028 9.31029 8.07151 9.47765 8.13 9.64001L8.22 9.87001V9.97001C8.82086 11.268 10.1493 12.0716 11.5779 12.0013C13.0065 11.931 14.2495 11.0008 14.72 9.65001C14.7398 9.59846 14.7557 9.54547 14.7675 9.49152L14.81 9.35001V9.25001C14.8796 9.17161 14.9431 9.08803 15 9.00001V9.10001C15.0096 9.03704 15.0096 8.97298 15 8.91001C15.0043 8.84563 15.0049 8.78106 15.0016 8.71664C15.0049 8.63445 15.0044 8.55215 15 8.47001C14.9925 6.62574 13.5513 5.10568 11.71 5.00001H11.51ZM7.56 12.33L7.64 12.27C5.97875 13.4902 4.99828 15.4288 5 17.49L5.11 17.57C5.4753 17.8726 5.89666 18.1003 6.35 18.24C8.01271 18.7769 9.75309 19.0337 11.5 19C13.2469 19.0337 14.9873 18.7769 16.65 18.24C17.1033 18.1003 17.5247 17.8726 17.89 17.57C17.99 17.47 18 17.47 18 17.49C18.0032 15.4711 17.0638 13.5664 15.46 12.34C14.4212 13.4041 12.9971 14.0041 11.51 14.0041C10.0229 14.0041 8.59876 13.4041 7.56 12.34V12.33Z" fill="#0DB14B"></path>
</svg>