<svg width="24" height="24" viewBox="0 0 24 24" fill="none" xmlns="http://www.w3.org/2000/svg">
  <path fill-rule="evenodd" clip-rule="evenodd" d="M21.49 3H2C1.44772 3 1 3.44772 1 4C1 4.55228 1.44772 5 2 5H5.85L5.17 13.85C5.12819 14.4059 5.32029 14.954 5.69999 15.3622C6.07969 15.7704 6.61252 16.0016 7.17 16H19.41C20.3417 16.0006 21.1504 15.3578 21.36 14.45L23.43 5.45C23.5668 4.85757 23.4267 4.23508 23.0492 3.75841C22.6718 3.28174 22.098 3.00265 21.49 3ZM19.41 14H7.16L7.85 5H21.49L19.41 14ZM9 21C10.1046 21 11 20.1046 11 19C11 17.8954 10.1046 17 9 17C7.89543 17 7 17.8954 7 19C7 20.1046 7.89543 21 9 21ZM18 21C19.1046 21 20 20.1046 20 19C20 17.8954 19.1046 17 18 17C16.8954 17 16 17.8954 16 19C16 20.1046 16.8954 21 18 21Z" fill="#0DB14B"></path>
</svg>