<svg width="12" height="12" viewBox="0 0 12 12" fill="none" xmlns="http://www.w3.org/2000/svg">
<path fill-rule="evenodd" clip-rule="evenodd" d="M0 6C0 2.68629 2.68629 0 6 0C7.5913 0 9.11742 0.632141 10.2426 1.75736C11.3679 2.88258 12 4.4087 12 6C12 9.31371 9.31371 12 6 12C2.68629 12 0 9.31371 0 6ZM7.885 9.1L8.62 8.6C8.76951 8.4967 8.81136 8.29408 8.715 8.14L7.915 6.99C7.82074 6.87143 7.65787 6.83226 7.52 6.895L7.02 7.1C6.88237 7.15902 6.72225 7.11796 6.63 7L5.09 4.815C5.00747 4.68888 5.02413 4.52228 5.13 4.415L5.5 4C5.61339 3.89582 5.6365 3.72565 5.555 3.595L4.755 2.445C4.69981 2.37399 4.61838 2.32816 4.52904 2.31782C4.4397 2.30748 4.34996 2.33349 4.28 2.39L3.545 2.89C3.28765 3.05842 3.16683 3.37254 3.245 3.67C3.58458 4.74026 4.07087 5.75828 4.69 6.695C5.35913 7.60411 6.15369 8.41382 7.05 9.1C7.2984 9.28256 7.6366 9.28256 7.885 9.1Z" fill="#9B9B9B"></path>
</svg>