<svg width="18" class="svg_layer_cat" height="15" viewBox="0 0 18 15" fill="none" xmlns="http://www.w3.org/2000/svg">
                          <path d="M6 14.5H16V12.5H6V14.5ZM6 8.5H12V6.5H6V8.5ZM6 0.5V2.5H18V0.5H6ZM2 8.34156e-08C1.80295 6.57402e-05 1.60785 0.0389422 1.42582 0.11441C1.2438 0.189878 1.07842 0.300459 0.939133 0.43984C0.799845 0.579221 0.689374 0.744671 0.614028 0.926745C0.538681 1.10882 0.499934 1.30395 0.5 1.501C0.500066 1.69805 0.538942 1.89315 0.61441 2.07518C0.689878 2.2572 0.800459 2.42258 0.93984 2.56187C1.07922 2.70116 1.24467 2.81163 1.42675 2.88697C1.60882 2.96232 1.80395 3.00107 2.001 3.001C2.39896 3.00087 2.78056 2.84265 3.06187 2.56116C3.34317 2.27967 3.50113 1.89796 3.501 1.5C3.50087 1.10204 3.34265 0.720437 3.06116 0.439133C2.77967 0.157828 2.39796 -0.000132516 2 8.34156e-08ZM2 6C1.80295 6.00007 1.60785 6.03894 1.42582 6.11441C1.2438 6.18988 1.07842 6.30046 0.939133 6.43984C0.799845 6.57922 0.689374 6.74467 0.614027 6.92675C0.538681 7.10882 0.499934 7.30395 0.5 7.501C0.500066 7.69805 0.538942 7.89315 0.61441 8.07518C0.689878 8.2572 0.800459 8.42258 0.93984 8.56187C1.07922 8.70116 1.24467 8.81163 1.42675 8.88697C1.60882 8.96232 1.80395 9.00107 2.001 9.001C2.39896 9.00087 2.78056 8.84265 3.06187 8.56116C3.34317 8.27967 3.50113 7.89796 3.501 7.5C3.50087 7.10204 3.34265 6.72044 3.06116 6.43913C2.77967 6.15783 2.39796 5.99987 2 6ZM2 12C1.80295 12.0001 1.60785 12.0389 1.42582 12.1144C1.2438 12.1899 1.07842 12.3005 0.939133 12.4398C0.799845 12.5792 0.689374 12.7447 0.614027 12.9267C0.538681 13.1088 0.499934 13.304 0.5 13.501C0.500066 13.698 0.538942 13.8932 0.61441 14.0752C0.689878 14.2572 0.800459 14.4226 0.93984 14.5619C1.07922 14.7012 1.24467 14.8116 1.42675 14.887C1.60882 14.9623 1.80395 15.0011 2.001 15.001C2.39896 15.0009 2.78056 14.8427 3.06187 14.5612C3.34317 14.2797 3.50113 13.898 3.501 13.5C3.50087 13.102 3.34265 12.7204 3.06116 12.4391C2.77967 12.1578 2.39796 11.9999 2 12Z"></path>
                        </svg>