<svg width="24" height="24" viewBox="0 0 24 24" fill="none" xmlns="http://www.w3.org/2000/svg">
  <path fill-rule="evenodd" clip-rule="evenodd" d="M11.43 20.89C11.6114 20.962 11.8048 20.9993 12 21C12.2036 20.9902 12.4037 20.9427 12.59 20.86C20.14 17.81 22.68 12.21 21.85 8C21.4635 5.16078 19.0552 3.0333 16.19 3C14.6894 3.05466 13.2357 3.53692 12 4.39C10.7691 3.53468 9.31792 3.05209 7.81998 3C4.925 3.01752 2.49118 5.17759 2.12998 8.05C1.29998 12.29 3.84998 17.89 11.43 20.89ZM3.99998 8.45C4.20443 6.49271 5.85205 5.00468 7.81998 5C9.14941 5.07662 10.4218 5.56601 11.46 6.4L12 6.8L12.56 6.38C13.5972 5.55397 14.866 5.07162 16.19 5C18.1454 5.02268 19.7783 6.49704 20 8.44C20.64 11.8 18.42 16.35 12 18.98C5.54998 16.45 3.32998 11.84 3.99998 8.45Z" fill="#0DB14B"></path>
</svg>