<svg width="12" height="12" viewBox="0 0 12 12" fill="none" xmlns="http://www.w3.org/2000/svg">
<path fill-rule="evenodd" clip-rule="evenodd" d="M9.19589 1.40706C10.066 2.30447 10.5363 3.51556 10.4998 4.765C10.5072 5.90992 10.1126 7.02114 9.38483 7.905L6.80483 11.565C6.62544 11.8309 6.32562 11.9903 6.00483 11.9903C5.68404 11.9903 5.38422 11.8309 5.20483 11.565L2.62483 7.905C1.92594 7.05834 1.52998 6.00244 1.49983 4.905C1.42983 2.31 3.42983 0.07 5.87983 0C7.1298 0.00216821 8.32579 0.509644 9.19589 1.40706ZM4.49983 4.5C4.49983 5.32843 5.1714 6 5.99983 6C6.39766 6 6.77919 5.84196 7.06049 5.56066C7.34179 5.27936 7.49983 4.89782 7.49983 4.5C7.49983 3.67157 6.82826 3 5.99983 3C5.1714 3 4.49983 3.67157 4.49983 4.5Z" fill="#9B9B9B"></path>
</svg>