<svg width="24" height="24" viewBox="0 0 24 24" fill="none" xmlns="http://www.w3.org/2000/svg">
	<path d="M21 14.5C21 10 19 6 16 6M3 14.5C3 10 5 6 8 6M3 14.5C3 16.433 4.567 18 6.5 18C8.433 18 10 16.433 10 14.5M3 14.5C3 12.567 4.567 11 6.5 11C8.433 11 10 12.567 10 14.5M10 14.5C11 13.5 13 13.5 14 14.5M14 14.5C14 16.433 15.567 18 17.5 18C19.433 18 21 16.433 21 14.5C21 12.567 19.433 11 17.5 11C15.567 11 14 12.567 14 14.5Z" stroke="#0DB14B" stroke-width="2" stroke-linecap="round" stroke-linejoin="round"></path>
</svg>