<svg xmlns="http://www.w3.org/2000/svg" viewBox="0 0 45.71 42.88"><defs><style>.cls-1{fill:#3cc;}.cls-2{fill:#fff;}</style></defs><title>btn_1</title><g id="Layer_2" data-name="Layer 2"><g id="Layer_1-2" data-name="Layer 1"><path d="M3,2.78A1.63,1.63,0,0,1,2.58,4a1.46,1.46,0,0,1-1.1.42A1.42,1.42,0,0,1,.4,4,1.65,1.65,0,0,1,0,2.78V1.61A1.66,1.66,0,0,1,.4.43,1.41,1.41,0,0,1,1.48,0a1.46,1.46,0,0,1,1.1.43A1.64,1.64,0,0,1,3,1.61ZM2.4,1.6A1.3,1.3,0,0,0,2.16.76.83.83,0,0,0,1.48.47.79.79,0,0,0,.82.76a1.33,1.33,0,0,0-.23.85V2.78a1.34,1.34,0,0,0,.23.85.79.79,0,0,0,.66.29.83.83,0,0,0,.68-.29,1.32,1.32,0,0,0,.24-.85Z"/><path d="M6.7,4.33H6.1V.52H4.43V4.33h-.6V.06H6.7Z"/><path d="M10.52.06V4.33h-.6V.52H8.71V2a4,4,0,0,1-.29,1.76,1,1,0,0,1-.92.55H7.38V3.88h.1A.5.5,0,0,0,8,3.47,5.31,5.31,0,0,0,8.11,2v-2Z"/><path d="M13.42,3.25H12.14l-.31,1.08h-.62L12.5.06h.58l1.27,4.27h-.62Zm-1.14-.47h1L12.79,1h0Z"/><path d="M17.16.52H16V4.33h-.6V.52H14.31V.06h2.85Z"/><path d="M20.07.06h.6V4.33h-.6V1.2h0L18.4,4.33H17.8V.06h.59V3.19h0Z"/><path d="M24.09.52H23V4.33h-.6V.52H21.24V.06h2.85Z"/><path d="M25.38,1.74h.77a1.28,1.28,0,0,1,1,.36,1.27,1.27,0,0,1,.35.93A1.3,1.3,0,0,1,27.1,4a1.27,1.27,0,0,1-1,.36H24.78V.06h.6Zm0,.45V3.88h.77a.62.62,0,0,0,.53-.25A1,1,0,0,0,26.85,3a.94.94,0,0,0-.18-.59.63.63,0,0,0-.53-.24Z"/><path d="M32.44.06V4.33h-.59V2.53a2.57,2.57,0,0,1-.42.1,2.86,2.86,0,0,1-.45,0,1.38,1.38,0,0,1-1-.32,1.34,1.34,0,0,1-.34-1V.06h.59V1.33a1,1,0,0,0,.17.69.7.7,0,0,0,.55.2,2.79,2.79,0,0,0,.44,0,3,3,0,0,0,.43-.1v-2Z"/><path d="M35.45,2.35H34V3.88H35.7v.45H33.4V.06h2.29V.52H34V1.89h1.45Z"/><path d="M37,2.65V4.33h-.59V.06h1.39a1.26,1.26,0,0,1,1,.36,1.29,1.29,0,0,1,.34.94,1.29,1.29,0,0,1-.34.94,1.26,1.26,0,0,1-1,.35Zm0-.46h.79A.62.62,0,0,0,38.36,2a1,1,0,0,0,.18-.59,1,1,0,0,0-.18-.6.61.61,0,0,0-.53-.24H37Z"/><path d="M42,2.35H40.51V3.88h1.71v.45h-2.3V.06H42.2V.52H40.51V1.89H42Z"/><path d="M44.27,1.93a.82.82,0,0,0,.6-.19.72.72,0,0,0,.19-.53.72.72,0,0,0-.21-.54.84.84,0,0,0-.62-.21.76.76,0,0,0-.54.21.69.69,0,0,0-.22.53h-.57v0a1,1,0,0,1,.38-.85,1.45,1.45,0,0,1,1-.33,1.58,1.58,0,0,1,1,.31,1.09,1.09,0,0,1,.38.89.93.93,0,0,1-.18.55,1.13,1.13,0,0,1-.48.38,1.06,1.06,0,0,1,.53.38,1.05,1.05,0,0,1,.18.63,1.1,1.1,0,0,1-.41.91,1.65,1.65,0,0,1-1.07.33,1.59,1.59,0,0,1-1-.31,1,1,0,0,1-.4-.91v0h.57a.77.77,0,0,0,.23.57.79.79,0,0,0,.58.23.92.92,0,0,0,.65-.21.73.73,0,0,0,.23-.57.74.74,0,0,0-.21-.59.93.93,0,0,0-.63-.19h-.48V1.93Z"/><path class="cls-1" d="M40,33.46l0,0c-.68-.93-1.43-1.82-2.16-2.7-.45-.54-.9-1.08-1.36-1.61-.17-.2-1.05-1-1.26-1.22a2.55,2.55,0,0,1-1.66.69,13.09,13.09,0,0,1-3.7-.1c-.53-.1-.58-.39-.58-.9,0-.3,0-.6,0-.9H28l-6,0H8.92c-2.14,0-2.87.7-2.87,3.13v9.66c0,2.38.19,3.43,3.32,3.43h23.2a4.82,4.82,0,0,0,3.07-1.73,64.93,64.93,0,0,0,4.41-4.89A2.64,2.64,0,0,0,40,33.46Z"/><path d="M17.06,9.63a3.56,3.56,0,0,0-.92-1A4.53,4.53,0,0,0,15,8a6.72,6.72,0,0,0-1.46-.31,16.86,16.86,0,0,0-1.7-.08h-5a.87.87,0,0,0-.92.86v8.21a7.69,7.69,0,0,0,3.26,3.52V18.6a.94.94,0,0,1,.9-1.05h1.47a7.23,7.23,0,0,0,4.65-1.3,4.67,4.67,0,0,0,1.6-3.85,6.18,6.18,0,0,0-.17-1.46A4.6,4.6,0,0,0,17.06,9.63Zm-2.9,4.22a1.77,1.77,0,0,1-.74.7,2.94,2.94,0,0,1-1.07.29q-.6.05-1.25.06H9.71c-.34,0-.56-.28-.56-.7V10.84a.49.49,0,0,1,.53-.53h1.43c.46,0,.9,0,1.31,0a2.84,2.84,0,0,1,1.06.26,1.6,1.6,0,0,1,.7.67,2.61,2.61,0,0,1,.25,1.27A2.6,2.6,0,0,1,14.16,13.85Zm-5,6.91a9,9,0,0,1-3.26-2.11v4s-.06.65.56.65H8.63c.6,0,.52-.65.52-.65ZM40,12H38a.79.79,0,0,0-.82.61L35,18.86l-2.13-6.18A.91.91,0,0,0,32,12H30.17c-.63,0-.63.51-.55.71s2.52,7,3.45,9.6a3.85,3.85,0,0,1,.31,1,2.67,2.67,0,0,1-.38,1,2.48,2.48,0,0,1-.25.36,9.75,9.75,0,0,0,5-4.77c1.08-3.06,2.51-7.09,2.57-7.3S40.46,12,40,12ZM31.34,25.21a4.68,4.68,0,0,1-.51,0c-.2,0-.59,0-.59.35v1.53c0,.58.27.62.43.66a6.28,6.28,0,0,0,1.38.14,3.56,3.56,0,0,0,1.61-.34,3.87,3.87,0,0,0,1.21-.95,6.77,6.77,0,0,0,.93-1.45q.41-.84.78-1.85l.29-.8C36.34,23,33.8,25.45,31.34,25.21ZM28.41,13.77a2.66,2.66,0,0,0-.43-.7,3,3,0,0,0-.6-.53,4.49,4.49,0,0,0-.76-.4,5.79,5.79,0,0,0-.84-.26,6.76,6.76,0,0,0-1-.14c-.36,0-.76,0-1.21,0q-4.43,0-5,2.85a.47.47,0,0,0,.44.62H20.8c.48,0,.45-.16.69-.59a1.29,1.29,0,0,1,.43-.6,2.52,2.52,0,0,1,1.57-.41,2.2,2.2,0,0,1,1.46.4,1.75,1.75,0,0,1,.54,1.2c0,.62-.19,1-.93,1A10,10,0,0,0,19.7,17,3.67,3.67,0,0,0,18,20.21a3.33,3.33,0,0,0,.29,1.44,2.88,2.88,0,0,0,.8,1,3.44,3.44,0,0,0,1.23.62,5.59,5.59,0,0,0,1.56.21,6.63,6.63,0,0,0,2.09-.3,7.73,7.73,0,0,0,1.66-1v.35c0,.35.1.66.51.66h2.11c.43,0,.52-.31.52-.69V15.95a8.27,8.27,0,0,0-.08-1.23A3.91,3.91,0,0,0,28.41,13.77Zm-2.88,6.49A2.6,2.6,0,0,1,23,21.41,2.15,2.15,0,0,1,21.73,21a1.33,1.33,0,0,1-.5-1.15A1.47,1.47,0,0,1,22,18.47a6.15,6.15,0,0,1,2.45-.42c.82,0,1,.54,1,.91Z"/><path class="cls-2" d="M11.94,30.63v-.06c0-.29,0-.58-.49-.58H9.67c-.41,0-.44.23-.44.59V33A7.47,7.47,0,0,1,11.94,30.63Z"/><path class="cls-2" d="M23.87,39.3v-.13h0V33.39q0-3.63-3.15-3.63a3.1,3.1,0,0,0-1.65.46,6,6,0,0,0-1.44,1.28,2.54,2.54,0,0,0-1-1.32,3.32,3.32,0,0,0-1.77-.42,4.07,4.07,0,0,0-2.51.88c-.15.16-3.11,2.52-3.11,4.94v3.7c0,.12-.06.56.44.56h1.85c.58,0,.52-.38.52-.54v-6c.31-.42,1-1.46,2-1.46a.94.94,0,0,1,.86.41,2.67,2.67,0,0,1,.26,1.38v4.67h0v1c0,.12-.06.56.44.56h1.83c.58,0,.52-.38.52-.54v-.13h0V33.32c.33-.42,1-1.46,2-1.46a1,1,0,0,1,.88.41,2.63,2.63,0,0,1,.27,1.38v4.67h0v1c0,.12-.06.56.44.56h1.85C23.93,39.84,23.87,39.46,23.87,39.3Z"/><path class="cls-2" d="M34.06,37a4.24,4.24,0,0,1-4.19,2.8,4.53,4.53,0,0,1-4.7-4.9c0-2.9,1.94-5,4.61-5s4.41,1.87,4.53,4.88c0,.39-.1.72-.57.72h-6c0,1.62.8,2.49,2.15,2.49a1.86,1.86,0,0,0,1.74-1.07.66.66,0,0,1,.56-.29h1.55A.32.32,0,0,1,34.06,37Zm-4.28-5.23a2.08,2.08,0,0,0-2,2.1h4C31.66,32.68,31.05,31.72,29.79,31.72Z"/></g></g></svg>