<svg xmlns="http://www.w3.org/2000/svg" viewBox="0 0 24 24" width="16" height="24px">
  <path d="M4.32,4.19a3.46,3.46,0,0,1,2.93-1A3.46,3.46,0,0,1,10,4.68a5.05,5.05,0,0,1,.72,3.4,5,5,0,0,1-1.29,3.19,3.48,3.48,0,0,1-2.93.94,3.45,3.45,0,0,1-2.71-1.44A4.94,4.94,0,0,1,3,7.41,5,5,0,0,1,4.32,4.19Zm2.76,1c-1-.09-1.59.72-1.74,2.42s.29,2.55,1.3,2.64,1.58-.7,1.72-2.37S8.08,5.28,7.08,5.19ZM9.54,20c-.39.86-.92,1.14-1.6.84s-.67-.83-.27-1.72L14.53,4c.38-.89.9-1.18,1.55-.87s.67.83.28,1.72ZM14.62,13a3.49,3.49,0,0,1,2.92-1,3.49,3.49,0,0,1,2.72,1.46,5.1,5.1,0,0,1,.71,3.4A4.94,4.94,0,0,1,19.68,20a3.47,3.47,0,0,1-2.92.95A3.51,3.51,0,0,1,14,19.54a5,5,0,0,1-.72-3.36A5.09,5.09,0,0,1,14.62,13Zm2.75,1c-1-.09-1.59.72-1.73,2.42s.28,2.55,1.29,2.64,1.58-.71,1.73-2.38S18.38,14.05,17.37,14Z"></path>
</svg>