<svg width="24" height="24" viewBox="0 0 24 24" fill="none" xmlns="http://www.w3.org/2000/svg">
  <path fill-rule="evenodd" clip-rule="evenodd" d="M17.6513 7.32331C16.3551 4.67769 13.6661 3.00049 10.72 3C7.34548 2.99928 4.36154 5.1904 3.35196 8.41036C2.34238 11.6303 3.54116 15.1329 6.31201 17.059C9.08286 18.985 12.7836 18.8883 15.45 16.82L19.36 20.72C19.7436 21.0757 20.3365 21.0757 20.72 20.72C21.0819 20.335 21.0819 19.735 20.72 19.35L16.82 15.45C18.6251 13.1216 18.9476 9.96892 17.6513 7.32331ZM4.93001 10.72C4.93001 7.52227 7.52228 4.93 10.72 4.93C12.2556 4.93 13.7283 5.54002 14.8142 6.62585C15.9 7.71169 16.51 9.1844 16.51 10.72C16.51 13.9177 13.9177 16.51 10.72 16.51C7.52228 16.51 4.93001 13.9177 4.93001 10.72Z" fill="#D8D8D8"></path>
</svg>