<svg width="16" height="16" viewBox="0 0 16 16" fill="none" xmlns="http://www.w3.org/2000/svg">
  <path fill-rule="evenodd" clip-rule="evenodd" d="M7.99998 1.33325C4.31808 1.33325 1.33331 4.31802 1.33331 7.99992C1.33331 11.6818 4.31808 14.6666 7.99998 14.6666C11.6819 14.6666 14.6666 11.6818 14.6666 7.99992C14.6666 6.23181 13.9643 4.53612 12.714 3.28587C11.4638 2.03563 9.76809 1.33325 7.99998 1.33325ZM7.99998 13.3333C5.05446 13.3333 2.66665 10.9454 2.66665 7.99992C2.66665 5.0544 5.05446 2.66659 7.99998 2.66659C10.9455 2.66659 13.3333 5.0544 13.3333 7.99992C13.3333 9.41441 12.7714 10.771 11.7712 11.7712C10.771 12.7713 9.41447 13.3333 7.99998 13.3333ZM8.66664 4.66658V7.72658L10.8066 9.85992C10.9328 9.9851 11.0038 10.1555 11.0038 10.3333C11.0038 10.511 10.9328 10.6814 10.8066 10.8066C10.6815 10.9328 10.5111 11.0038 10.3333 11.0038C10.1555 11.0038 9.98515 10.9328 9.85997 10.8066L7.52664 8.47325C7.40185 8.34744 7.33228 8.17712 7.33331 7.99992V4.66658C7.33331 4.2984 7.63178 3.99992 7.99997 3.99992C8.36816 3.99992 8.66664 4.2984 8.66664 4.66658Z" fill="#040507"></path>
</svg>